<svg width="32" height="32" viewBox="0 0 32 32" fill="none" xmlns="http://www.w3.org/2000/svg">
<path d="M17.88 9.33332L12.2267 15.0533C12.1017 15.1773 12.0025 15.3247 11.9348 15.4872C11.8671 15.6497 11.8323 15.824 11.8323 16C11.8323 16.176 11.8671 16.3503 11.9348 16.5128C12.0025 16.6752 12.1017 16.8227 12.2267 16.9467L17.88 22.6C18.004 22.725 18.1514 22.8242 18.3139 22.8918C18.4764 22.9595 18.6507 22.9944 18.8267 22.9944C19.0027 22.9944 19.177 22.9595 19.3394 22.8918C19.5019 22.8242 19.6494 22.725 19.7733 22.6C20.0217 22.3502 20.1611 22.0122 20.1611 21.66C20.1611 21.3077 20.0217 20.9698 19.7733 20.72L15.0533 16L19.7733 11.28C20.0197 11.0316 20.1585 10.6964 20.16 10.3467C20.161 10.1712 20.1274 9.99723 20.061 9.83478C19.9947 9.67233 19.8969 9.52457 19.7733 9.39999C19.6538 9.27055 19.5099 9.16608 19.3498 9.09261C19.1897 9.01913 19.0166 8.97811 18.8406 8.97191C18.6645 8.96571 18.489 8.99446 18.3241 9.05649C18.1593 9.11852 18.0083 9.21261 17.88 9.33332Z" fill="#F8F8F8"/>
</svg>
