<svg width="32" height="32" viewBox="0 0 32 32" fill="none" xmlns="http://www.w3.org/2000/svg">
<path d="M5.33333 17.3333H13.3333C14.0667 17.3333 14.6667 16.7333 14.6667 16V5.33333C14.6667 4.6 14.0667 4 13.3333 4H5.33333C4.6 4 4 4.6 4 5.33333V16C4 16.7333 4.6 17.3333 5.33333 17.3333ZM5.33333 28H13.3333C14.0667 28 14.6667 27.4 14.6667 26.6667V21.3333C14.6667 20.6 14.0667 20 13.3333 20H5.33333C4.6 20 4 20.6 4 21.3333V26.6667C4 27.4 4.6 28 5.33333 28ZM18.6667 28H26.6667C27.4 28 28 27.4 28 26.6667V16C28 15.2667 27.4 14.6667 26.6667 14.6667H18.6667C17.9333 14.6667 17.3333 15.2667 17.3333 16V26.6667C17.3333 27.4 17.9333 28 18.6667 28ZM17.3333 5.33333V10.6667C17.3333 11.4 17.9333 12 18.6667 12H26.6667C27.4 12 28 11.4 28 10.6667V5.33333C28 4.6 27.4 4 26.6667 4H18.6667C17.9333 4 17.3333 4.6 17.3333 5.33333Z" fill="#F8F8F8"/>
</svg>
