<svg width="31" height="31" viewBox="0 0 31 31" fill="none" xmlns="http://www.w3.org/2000/svg">
<path d="M21.4287 11.625H19.375V5.16667C19.375 4.45625 18.7937 3.875 18.0833 3.875H12.9167C12.2062 3.875 11.625 4.45625 11.625 5.16667V11.625H9.57124C8.42166 11.625 7.84041 13.02 8.65416 13.8338L14.5829 19.7625C15.0867 20.2663 15.9004 20.2663 16.4042 19.7625L22.3329 13.8338C23.1467 13.02 22.5783 11.625 21.4287 11.625ZM6.45833 24.5417C6.45833 25.2521 7.03958 25.8333 7.74999 25.8333H23.25C23.9604 25.8333 24.5417 25.2521 24.5417 24.5417C24.5417 23.8313 23.9604 23.25 23.25 23.25H7.74999C7.03958 23.25 6.45833 23.8313 6.45833 24.5417Z" fill="#F8F8F8"/>
</svg>
