<svg width="32" height="32" viewBox="0 0 32 32" fill="none" xmlns="http://www.w3.org/2000/svg">
<path d="M32 17.0001C32 17.2653 31.8946 17.5197 31.7071 17.7072C31.5196 17.8948 31.2652 18.0001 31 18.0001H29V20.0001C29 20.2653 28.8946 20.5197 28.7071 20.7072C28.5196 20.8948 28.2652 21.0001 28 21.0001C27.7348 21.0001 27.4804 20.8948 27.2929 20.7072C27.1054 20.5197 27 20.2653 27 20.0001V18.0001H25C24.7348 18.0001 24.4804 17.8948 24.2929 17.7072C24.1054 17.5197 24 17.2653 24 17.0001C24 16.7349 24.1054 16.4805 24.2929 16.293C24.4804 16.1055 24.7348 16.0001 25 16.0001H27V14.0001C27 13.7349 27.1054 13.4805 27.2929 13.293C27.4804 13.1055 27.7348 13.0001 28 13.0001C28.2652 13.0001 28.5196 13.1055 28.7071 13.293C28.8946 13.4805 29 13.7349 29 14.0001V16.0001H31C31.2652 16.0001 31.5196 16.1055 31.7071 16.293C31.8946 16.4805 32 16.7349 32 17.0001ZM18 19.7101C19.5676 18.7337 20.7746 17.2734 21.4383 15.55C22.1021 13.8265 22.1864 11.9338 21.6787 10.1582C21.1709 8.38254 20.0987 6.82057 18.6242 5.70859C17.1496 4.59661 15.3531 3.99512 13.5063 3.99512C11.6594 3.99512 9.86286 4.59661 8.38834 5.70859C6.91381 6.82057 5.84156 8.38254 5.33381 10.1582C4.82606 11.9338 4.91044 13.8265 5.57417 15.55C6.2379 17.2734 7.44488 18.7337 9.0125 19.7101C6.43125 20.5551 4.10875 22.1339 2.24125 24.3564C2.11899 24.5017 2.04064 24.6788 2.01537 24.8671C1.99009 25.0553 2.01894 25.2468 2.09853 25.4192C2.17812 25.5917 2.30517 25.7379 2.46482 25.8407C2.62446 25.9436 2.81009 25.9989 3 26.0001H24C24.1905 26.0003 24.3772 25.9461 24.5379 25.8437C24.6987 25.7414 24.8269 25.5953 24.9074 25.4226C24.9879 25.2499 25.0174 25.0578 24.9924 24.8689C24.9674 24.68 24.8889 24.5022 24.7663 24.3564C22.8975 22.1339 20.575 20.5551 18 19.7101Z" fill="#F8F8F8"/>
</svg>
