<svg width="22" height="26" viewBox="0 0 22 26" fill="none" xmlns="http://www.w3.org/2000/svg">
<path d="M6.66667 22.6733H14.6667V25.34H6.66667C2.98667 25.34 0 22.3533 0 18.6733V6.67333H2.66667V18.6733C2.66667 20.8867 4.45333 22.6733 6.66667 22.6733ZM8.56 4.55333C9.6 3.51333 9.6 1.82 8.56 0.78C7.52 -0.26 5.82667 -0.26 4.78667 0.78C3.74667 1.82 3.74667 3.51333 4.78667 4.55333C5.82667 5.60667 7.50667 5.60667 8.56 4.55333ZM10 9.34C10 7.87333 8.8 6.67333 7.33333 6.67333H6.66667C5.2 6.67333 4 7.87333 4 9.34V17.34C4 19.5533 5.78667 21.34 8 21.34H14.76L19.4267 26.0067L21.3333 24.1L14.5733 17.34H10V9.34Z" fill="#F8F8F8"/>
</svg>
