<svg width="24" height="24" viewBox="0 0 24 24" fill="none" xmlns="http://www.w3.org/2000/svg">
<path fill-rule="evenodd" clip-rule="evenodd" d="M4 4H16C16 4.26522 16.1054 4.51957 16.2929 4.70711C16.4804 4.89464 16.7348 5 17 5C17.2652 5 17.5196 4.89464 17.7071 4.70711C17.8946 4.51957 18 4.26522 18 4H20C20.5304 4 21.0391 4.21071 21.4142 4.58579C21.7893 4.96086 22 5.46957 22 6V18C22 18.5304 21.7893 19.0391 21.4142 19.4142C21.0391 19.7893 20.5304 20 20 20H18C18 19.7348 17.8946 19.4804 17.7071 19.2929C17.5196 19.1054 17.2652 19 17 19C16.7348 19 16.4804 19.1054 16.2929 19.2929C16.1054 19.4804 16 19.7348 16 20H4C3.46957 20 2.96086 19.7893 2.58579 19.4142C2.21071 19.0391 2 18.5304 2 18V6C2 5.46957 2.21071 4.96086 2.58579 4.58579C2.96086 4.21071 3.46957 4 4 4ZM18 8.001C18 8.26622 17.8946 8.52057 17.7071 8.70811C17.5196 8.89564 17.2652 9.001 17 9.001C16.7348 9.001 16.4804 8.89564 16.2929 8.70811C16.1054 8.52057 16 8.26622 16 8.001V8C16 7.73478 16.1054 7.48043 16.2929 7.29289C16.4804 7.10536 16.7348 7 17 7C17.2652 7 17.5196 7.10536 17.7071 7.29289C17.8946 7.48043 18 7.73478 18 8V8.001ZM17 13.001C17.2652 13.001 17.5196 12.8956 17.7071 12.7081C17.8946 12.5206 18 12.2662 18 12.001V12C18 11.7348 17.8946 11.4804 17.7071 11.2929C17.5196 11.1054 17.2652 11 17 11C16.7348 11 16.4804 11.1054 16.2929 11.2929C16.1054 11.4804 16 11.7348 16 12V12.001C16 12.2662 16.1054 12.5206 16.2929 12.7081C16.4804 12.8956 16.7348 13.001 17 13.001ZM18 16.001C18 16.2662 17.8946 16.5206 17.7071 16.7081C17.5196 16.8956 17.2652 17.001 17 17.001C16.7348 17.001 16.4804 16.8956 16.2929 16.7081C16.1054 16.5206 16 16.2662 16 16.001C16 15.7358 16.1054 15.4804 16.2929 15.2929C16.4804 15.1054 16.7348 15 17 15C17.2652 15 17.5196 15.1054 17.7071 15.2929C17.8946 15.4804 18 15.7358 18 16.001Z" fill="white"/>
</svg>
