<svg width="32" height="32" viewBox="0 0 32 32" fill="none" xmlns="http://www.w3.org/2000/svg">
<path d="M16 5.33325C17.4145 5.33325 18.771 5.89515 19.7712 6.89535C20.7714 7.89554 21.3333 9.2521 21.3333 10.6666C21.3333 12.0811 20.7714 13.4376 19.7712 14.4378C18.771 15.438 17.4145 15.9999 16 15.9999C14.5855 15.9999 13.229 15.438 12.2288 14.4378C11.2286 13.4376 10.6667 12.0811 10.6667 10.6666C10.6667 9.2521 11.2286 7.89554 12.2288 6.89535C13.229 5.89515 14.5855 5.33325 16 5.33325ZM16 18.6666C21.8933 18.6666 26.6667 21.0533 26.6667 23.9999V26.6666H5.33333V23.9999C5.33333 21.0533 10.1067 18.6666 16 18.6666Z" fill="#F8F8F8"/>
</svg>
