<svg width="21" height="19" viewBox="0 0 21 19" fill="none" xmlns="http://www.w3.org/2000/svg">
<path fill-rule="evenodd" clip-rule="evenodd" d="M1.61539 1.61548H6.46154C6.46154 1.72259 6.50409 1.8253 6.57982 1.90104C6.65556 1.97678 6.75828 2.01932 6.86539 2.01932C6.97249 2.01932 7.07521 1.97678 7.15095 1.90104C7.22668 1.8253 7.26923 1.72259 7.26923 1.61548H8.07692C8.29114 1.61548 8.49658 1.70057 8.64805 1.85205C8.79952 2.00352 8.88462 2.20896 8.88462 2.42317V7.26932C8.88462 7.48354 8.79952 7.68898 8.64805 7.84045C8.49658 7.99192 8.29114 8.07702 8.07692 8.07702H7.26923C7.26923 7.96991 7.22668 7.86719 7.15095 7.79145C7.07521 7.71572 6.97249 7.67317 6.86539 7.67317C6.75828 7.67317 6.65556 7.71572 6.57982 7.79145C6.50409 7.86719 6.46154 7.96991 6.46154 8.07702H1.61539C1.40117 8.07702 1.19573 7.99192 1.04426 7.84045C0.892789 7.68898 0.807693 7.48354 0.807693 7.26932V2.42317C0.807693 2.20896 0.892789 2.00352 1.04426 1.85205C1.19573 1.70057 1.40117 1.61548 1.61539 1.61548ZM7.26923 3.23127C7.26923 3.33837 7.22668 3.44109 7.15095 3.51683C7.07521 3.59257 6.97249 3.63511 6.86539 3.63511C6.75828 3.63511 6.65556 3.59257 6.57982 3.51683C6.50409 3.44109 6.46154 3.33837 6.46154 3.23127V3.23086C6.46154 3.12376 6.50409 3.02104 6.57982 2.9453C6.65556 2.86957 6.75828 2.82702 6.86539 2.82702C6.97249 2.82702 7.07521 2.86957 7.15095 2.9453C7.22668 3.02104 7.26923 3.12376 7.26923 3.23086V3.23127ZM6.86539 5.2505C6.97249 5.2505 7.07521 5.20795 7.15095 5.13221C7.22668 5.05648 7.26923 4.95376 7.26923 4.84665V4.84625C7.26923 4.73914 7.22668 4.63642 7.15095 4.56069C7.07521 4.48495 6.97249 4.4424 6.86539 4.4424C6.75828 4.4424 6.65556 4.48495 6.57982 4.56069C6.50409 4.63642 6.46154 4.73914 6.46154 4.84625V4.84665C6.46154 4.95376 6.50409 5.05648 6.57982 5.13221C6.65556 5.20795 6.75828 5.2505 6.86539 5.2505ZM7.26923 6.46204C7.26923 6.56914 7.22668 6.67186 7.15095 6.7476C7.07521 6.82333 6.97249 6.86588 6.86539 6.86588C6.75828 6.86588 6.65556 6.82333 6.57982 6.7476C6.50409 6.67186 6.46154 6.56914 6.46154 6.46204C6.46154 6.35493 6.50409 6.25181 6.57982 6.17607C6.65556 6.10033 6.75828 6.05779 6.86539 6.05779C6.97249 6.05779 7.07521 6.10033 7.15095 6.17607C7.22668 6.25181 7.26923 6.35493 7.26923 6.46204Z" fill="white"/>
<path d="M18.7115 8.85107L12.9904 14.5722L10.1298 11.7117" stroke="#F8F8F8" stroke-width="2.5" stroke-linecap="round" stroke-linejoin="round"/>
</svg>
