<svg width="28" height="28" viewBox="0 0 28 28" fill="none" xmlns="http://www.w3.org/2000/svg">
<path fill-rule="evenodd" clip-rule="evenodd" d="M22.75 5.25C22.75 4.78587 22.5656 4.34075 22.2374 4.01256C21.9092 3.68437 21.4641 3.5 21 3.5H7C6.53587 3.5 6.09075 3.68437 5.76256 4.01256C5.43437 4.34075 5.25 4.78587 5.25 5.25V22.75C5.25 23.2141 5.43437 23.6592 5.76256 23.9874C6.09075 24.3156 6.53587 24.5 7 24.5H14V22.75H7V5.25H21V10.5H22.75V5.25Z" fill="#F8F8F8"/>
<path d="M8.75 15.75H14V17.5H8.75V15.75ZM8.75 12.25H19.25V14H8.75V12.25Z" fill="#F8F8F8"/>
<path fill-rule="evenodd" clip-rule="evenodd" d="M19.25 8.75V10.5H8.75V8.75H19.25ZM21.875 20.125L26.25 21.875V20.125L21.875 17.9375V15.75C21.875 15.5179 21.7828 15.2954 21.6187 15.1313C21.4546 14.9672 21.2321 14.875 21 14.875C20.7679 14.875 20.5454 14.9672 20.3813 15.1313C20.2172 15.2954 20.125 15.5179 20.125 15.75V17.9375L15.75 20.125V21.875L20.125 20.125V23.1875L18.375 24.5V25.375L21 24.5L23.625 25.375V24.5L21.875 23.1875V20.125Z" fill="#F8F8F8"/>
</svg>
