<svg width="179" height="179" viewBox="0 0 179 179" fill="none" xmlns="http://www.w3.org/2000/svg">
<rect width="179" height="179" rx="20" fill="white"/>
<g clip-path="url(#clip0_55_11)">
<path d="M42.0001 66L65.0001 72.64L90.2801 54.28L54.0001 55.32C53.6449 55.3394 53.3006 55.4496 53.0001 55.64L41.5201 62.24C41.163 62.4379 40.8735 62.7383 40.689 63.1025C40.5045 63.4667 40.4335 63.8778 40.4852 64.2828C40.5369 64.6877 40.7089 65.0679 40.979 65.374C41.249 65.6802 41.6048 65.8982 42.0001 66Z" fill="url(#paint0_linear_55_11)"/>
<path d="M155.08 45.4399L129.88 39.9999C127.761 39.5398 125.567 39.5411 123.448 40.0035C121.33 40.4659 119.335 41.3787 117.6 42.6799L41.48 97.9999L23.2 97.1999C22.153 97.1643 21.1212 97.4585 20.2504 98.041C19.3795 98.6235 18.7137 99.4647 18.3468 100.446C17.9799 101.427 17.9305 102.499 18.2056 103.51C18.4807 104.521 19.0665 105.42 19.88 106.08L37.68 120.2C37.9731 120.436 38.3219 120.594 38.6931 120.657C39.0643 120.72 39.4454 120.686 39.8 120.56C44.88 118.6 63.8 108.56 86.16 96.2799L90.64 142.32C90.6781 142.719 90.8242 143.099 91.0628 143.421C91.3013 143.743 91.6231 143.994 91.9936 144.146C92.3641 144.298 92.7691 144.346 93.165 144.285C93.5608 144.225 93.9326 144.057 94.24 143.8L104.24 135.48C104.787 135.021 105.156 134.384 105.28 133.68L114.76 80.5199C130.76 71.6399 146.04 63.0399 156.8 56.9599C157.917 56.3523 158.82 55.4162 159.386 54.2783C159.953 53.1404 160.156 51.8558 159.969 50.5984C159.781 49.3411 159.211 48.1719 158.337 47.2492C157.462 46.3265 156.325 45.6949 155.08 45.4399Z" fill="url(#paint1_linear_55_11)"/>
</g>
<defs>
<linearGradient id="paint0_linear_55_11" x1="103.381" y1="48.6587" x2="62.8953" y2="100.199" gradientUnits="userSpaceOnUse">
<stop stop-color="#2400FF"/>
<stop offset="1" stop-color="#FA0AFF" stop-opacity="0"/>
</linearGradient>
<linearGradient id="paint1_linear_55_11" x1="197.387" y1="7.61291" x2="-17.8387" y2="144.645" gradientUnits="userSpaceOnUse">
<stop stop-color="#2400FF"/>
<stop offset="1" stop-color="#FA0AFF" stop-opacity="0"/>
</linearGradient>
<clipPath id="clip0_55_11">
<rect width="144" height="144" fill="white" transform="translate(17 20)"/>
</clipPath>
</defs>
</svg>
